<?xml version="1.0" encoding="UTF-8"?>
<svg
  xmlns="http://www.w3.org/2000/svg"
  viewBox="0 0 1000 700"
  role="img"
  aria-label="United Arab Emirates map outline"
>
  <title>United Arab Emirates</title>
  <metadata>
    CurioMint country outline.
    Source: Natural Earth v5.1.1, public domain.
    Country code: AE.
  </metadata>
  <path
    d="M 926.62 345.48 L 930.56 345.52 L 934.81 345.55 L 937.92 345.56 L 939.4 345.6 L 943.47 345.84 L 942.32 346.17 L 942.55 346.21 L 943.17 346.3 L 942.91 346.33 L 941.48 346.38 L 941.66 346.41 L 943.47 346.47 L 944.34 346.5 L 945.17 346.53 L 945.79 346.55 L 945.88 346.57 L 946 346.6 L 945.82 346.64 L 945.04 346.71 L 944.45 346.82 L 942.73 346.97 L 942.03 347.48 L 941.99 347.52 L 945.94 347.8 L 935.88 347.82 L 935.03 347.84 L 934.08 347.85 L 933.48 347.97 L 933.15 348.04 L 933.02 348.06 L 932.05 348.09 L 926.86 348.16 L 925.81 348.18 L 919.69 348.28 L 916.36 348.31 L 909.43 348.33 L 906.67 348.35 L 906.63 348.35 L 903.61 348.48 L 899.63 348.57 L 898.5 348.63 L 896.83 348.66 L 893.29 348.68 L 889.36 348.68 L 889.05 348.68 L 886.43 348.68 L 880.76 348.6 L 875.31 348.35 L 868.39 348.24 L 867.07 348.19 L 867.67 348.14 L 870.92 348.13 L 873.51 348.14 L 875.9 348.16 L 880.34 348.22 L 879.6 348.14 L 878.06 347.98 L 875.96 347.88 L 870.92 347.82 L 870.45 347.82 L 862.96 347.8 L 855.83 347.83 L 849.38 347.9 L 848.58 347.92 L 843.31 348 L 837.7 348.13 L 835.76 348.24 L 837.31 348.51 L 837.31 348.58 L 836.51 348.71 L 836.89 348.78 L 837.86 348.81 L 840.63 348.92 L 841.24 348.99 L 836.05 349.08 L 834.9 349.19 L 832.3 349.24 L 830.42 349.29 L 830.67 349.37 L 832.99 349.52 L 832.56 349.71 L 833.16 349.76 L 834.35 349.79 L 838.06 349.83 L 839.46 349.87 L 839.88 349.89 L 839.23 350.07 L 838.04 350.12 L 830.84 350.34 L 829.37 350.41 L 829.65 350.46 L 831.88 350.48 L 843.48 350.52 L 846.6 350.53 L 856.98 350.45 L 862.53 350.49 L 865.46 350.62 L 867.65 350.77 L 874.52 350.99 L 872.47 351.04 L 860.75 351.09 L 839.17 351.25 L 835.72 351.24 L 830.9 351.18 L 827.57 351.19 L 824.52 351.21 L 821.67 351.21 L 815.64 351.19 L 809.49 351.19 L 804.2 351.2 L 799.15 351.24 L 793.71 351.29 L 790.11 351.33 L 782.24 351.38 L 774.27 351.41 L 773.53 351.46 L 775.16 351.52 L 778.26 351.57 L 784.98 351.64 L 787.95 351.72 L 788.79 351.82 L 789.38 352.09 L 788.6 352.14 L 779.94 352.36 L 778.26 352.42 L 772.15 352.86 L 769.58 352.93 L 762.67 353.06 L 762.63 353.06 L 759.17 353.15 L 757.1 353.27 L 753.23 353.62 L 749.13 353.83 L 731.49 354.38 L 725.73 354.71 L 725.08 354.82 L 726.25 355.33 L 724.26 355.84 L 711.94 356.12 L 709.15 356.13 L 683.81 356.07 L 658.04 356.01 L 632.26 355.95 L 606.51 355.89 L 580.77 355.83 L 554.99 355.77 L 529.24 355.71 L 503.48 355.65 L 477.69 355.59 L 451.93 355.53 L 426.18 355.47 L 400.4 355.41 L 374.65 355.35 L 348.89 355.29 L 323.11 355.23 L 297.36 355.17 L 271.6 355.11 L 241.83 355.04 L 237.27 355.02 L 233.56 354.96 L 223.62 354.74 L 213.95 354.52 L 204.29 354.3 L 194.62 354.08 L 184.98 353.86 L 175.31 353.65 L 165.66 353.43 L 155.99 353.21 L 146.34 352.99 L 136.67 352.77 L 127.01 352.55 L 117.34 352.33 L 107.67 352.11 L 98 351.9 L 88.35 351.68 L 78.68 351.46 L 69.03 351.24 L 58.48 351 L 55.7 350.91 L 54.71 350.82 L 55.09 350.59 L 55.15 350.5 L 54 350.37 L 57.95 350.27 L 58.13 350.11 L 54.86 349.98 L 58.52 349.91 L 60.12 349.97 L 64.09 350.07 L 64.86 350.14 L 64.86 350.35 L 66.06 350.47 L 68.7 350.5 L 71.34 350.45 L 73.13 350.29 L 74.39 350.33 L 76.23 350.44 L 77.46 350.48 L 78.34 350.49 L 80.03 350.49 L 81.59 350.48 L 82.59 350.47 L 82.81 350.45 L 82.08 350.44 L 85.63 350.29 L 89.1 350.25 L 92.93 350.35 L 93.44 350.42 L 91.54 350.65 L 91.82 350.73 L 94.08 350.91 L 94.29 350.95 L 94.08 351.06 L 94.47 351.1 L 96.2 351.17 L 96.58 351.21 L 98.48 351.27 L 102.9 351.29 L 111.9 351.3 L 114.07 351.31 L 115.73 351.33 L 118.91 351.38 L 120.59 351.4 L 122 351.4 L 122.52 351.38 L 121.44 351.36 L 121.08 351.32 L 125.06 351.31 L 135.65 351.32 L 136.93 351.31 L 138.23 351.32 L 140.53 351.36 L 146.28 351.4 L 147.82 351.4 L 155.64 351.38 L 158.91 351.39 L 160.75 351.37 L 162.61 351.39 L 165.49 351.37 L 168.67 351.37 L 172.02 351.37 L 175.36 351.37 L 178.44 351.35 L 185.5 351.27 L 188.62 351.26 L 194.53 351.26 L 196.99 351.25 L 199.11 351.22 L 201.37 351.18 L 203.85 351.14 L 206.49 351.13 L 209.55 351.11 L 213.11 351.09 L 216.09 351.05 L 217.34 351.02 L 218.38 350.98 L 224.02 350.93 L 226.77 350.89 L 229.21 350.85 L 232.45 350.81 L 235.71 350.78 L 238.23 350.76 L 240.25 350.74 L 240.82 350.68 L 240.88 350.61 L 241.39 350.57 L 245.01 350.53 L 248.37 350.55 L 251.28 350.6 L 257.95 350.76 L 260.03 350.78 L 260.78 350.77 L 261.39 350.75 L 263.01 350.74 L 267.21 350.74 L 274.79 350.78 L 278.82 350.79 L 281.17 350.78 L 285.15 350.75 L 287.14 350.74 L 289.28 350.74 L 290.88 350.75 L 292.16 350.76 L 293.5 350.76 L 309.27 350.79 L 311.05 350.78 L 317.63 350.74 L 318.5 350.72 L 318.76 350.7 L 319.03 350.69 L 320.16 350.69 L 321.11 350.7 L 321.82 350.71 L 322.33 350.73 L 322.69 350.74 L 328.12 350.81 L 331.53 350.84 L 338.93 350.79 L 342.73 350.81 L 346.22 350.85 L 349.35 350.83 L 346.8 350.81 L 346.08 350.77 L 346.01 350.73 L 345.46 350.69 L 349.7 350.67 L 354.57 350.71 L 359.02 350.77 L 362.02 350.83 L 364.58 350.91 L 366.09 350.93 L 376.34 350.94 L 400.05 350.85 L 401.67 350.85 L 403.3 350.87 L 405.84 350.92 L 407.78 350.94 L 410.42 350.95 L 413.16 350.95 L 415.29 350.93 L 418.65 350.98 L 420.64 351 L 422.35 351 L 423.12 351.02 L 425.5 351.08 L 426.78 351.1 L 428.32 351.11 L 430.44 351.11 L 432.48 351.1 L 435.65 351.07 L 437.55 351.08 L 439.31 351.1 L 440.8 351.1 L 446.52 351.06 L 447.77 351.04 L 449.29 351.03 L 451.07 351.03 L 452.93 351.04 L 454.72 351.05 L 477.26 351.06 L 481.92 351.05 L 483.94 351.02 L 495.31 350.91 L 507.01 350.87 L 510.69 350.84 L 514.58 350.83 L 519.47 350.79 L 525.12 350.77 L 527.07 350.76 L 529.45 350.74 L 532.83 350.69 L 535.87 350.63 L 537.17 350.58 L 539.01 350.55 L 551.19 350.49 L 561.04 350.37 L 562.71 350.36 L 564.2 350.32 L 567.72 350.32 L 575.24 350.37 L 576.64 350.33 L 583.52 350.24 L 586.99 350.15 L 594.33 349.9 L 593.29 349.81 L 593.88 349.77 L 596.86 349.74 L 595.14 349.72 L 594.33 349.72 L 594.33 349.69 L 597.21 349.69 L 601.76 349.73 L 604.46 349.74 L 603.29 349.7 L 600.12 349.64 L 599.49 349.59 L 602.25 349.62 L 605.2 349.63 L 607.85 349.65 L 609.62 349.69 L 610.78 349.69 L 610.21 349.6 L 606.72 349.57 L 601.82 349.56 L 596.86 349.54 L 586.01 349.42 L 581.68 349.4 L 581.68 349.38 L 583.91 349.37 L 586.19 349.34 L 588.09 349.3 L 588.4 349.32 L 589.04 349.35 L 590.53 349.38 L 590.03 349.34 L 590.67 349.31 L 593.06 349.25 L 594.33 349.25 L 595.79 349.35 L 599.38 349.45 L 603.93 349.51 L 608.35 349.5 L 607.22 349.49 L 604.46 349.45 L 606.59 349.45 L 610.57 349.47 L 612.15 349.47 L 612.77 349.46 L 614.37 349.41 L 615.32 349.4 L 622.27 349.15 L 619.19 349.13 L 617.78 349.1 L 618.47 349.07 L 621.64 349.06 L 623.57 349.04 L 624.11 348.99 L 625.18 348.94 L 628.6 348.91 L 628.6 348.89 L 626.99 348.87 L 626.22 348.83 L 625.68 348.79 L 624.82 348.74 L 625.81 348.72 L 624.47 348.7 L 623.02 348.67 L 623.55 348.62 L 625.26 348.58 L 632.51 348.5 L 633.41 348.47 L 634.3 348.44 L 635.36 348.42 L 641.06 348.47 L 641.36 348.47 L 644.09 348.46 L 646.76 348.43 L 647.69 348.38 L 645.17 348.33 L 665.33 348.12 L 674.4 348 L 680.02 347.91 L 683.73 347.87 L 688.31 347.84 L 688.7 347.84 L 689.52 347.84 L 690.26 347.83 L 690.72 347.83 L 691.63 347.82 L 692.23 347.81 L 692.56 347.81 L 692.97 347.8 L 693.76 347.8 L 698.9 347.74 L 697.9 347.67 L 704.02 347.65 L 704.88 347.66 L 718.71 347.38 L 737.63 346.95 L 738.58 346.9 L 738.43 346.85 L 741.96 346.79 L 744.92 346.8 L 747.69 346.87 L 748.63 346.92 L 747.86 346.96 L 745.43 347.03 L 750.57 347 L 751.57 346.94 L 750.13 346.86 L 746.41 346.74 L 745.91 346.71 L 746.94 346.68 L 752.52 346.57 L 754.14 346.56 L 756.95 346.56 L 756.09 346.52 L 756.22 346.48 L 757.36 346.44 L 759.48 346.42 L 761.35 346.45 L 765.09 346.39 L 770.97 346.25 L 772.12 346.25 L 772.93 346.29 L 774 346.29 L 775.09 346.27 L 775.92 346.22 L 777.18 346.25 L 779.7 346.11 L 781.47 346.05 L 783.5 346.02 L 781.19 346 L 782.37 345.96 L 784.75 345.9 L 786.03 345.84 L 786.85 345.78 L 788.88 345.71 L 791.73 345.65 L 794.9 345.63 L 793.32 345.69 L 791.28 345.74 L 790.11 345.78 L 791.21 345.83 L 794.09 345.85 L 797.72 345.84 L 801.76 345.82 L 805.68 345.8 L 806.84 345.78 L 809.72 345.64 L 811.35 345.58 L 816.27 345.49 L 819.24 345.45 L 825.62 345.41 L 830.36 345.29 L 832.4 345.26 L 834.07 345.26 L 836.43 345.24 L 838.51 345.23 L 839.41 345.2 L 840.24 345.19 L 845.73 345.17 L 852.33 345.07 L 862.41 344.85 L 867.46 344.77 L 866.36 344.8 L 865.18 344.88 L 863.28 344.94 L 864.03 344.96 L 865.38 344.97 L 866.09 344.96 L 866.48 344.9 L 868.2 344.8 L 868.62 344.73 L 869.79 344.7 L 877.59 344.57 L 879.22 344.54 L 880.62 344.49 L 881.75 344.44 L 882.52 344.38 L 881.25 344.38 L 880.59 344.41 L 879.49 344.44 L 878.06 344.46 L 876.32 344.47 L 881.16 344.33 L 885.17 344.18 L 888.49 343.95 L 889.26 343.92 L 893.56 343.91 L 902.96 343.87 L 905.06 343.87 L 907.98 344.01 L 908.91 344.09 L 908.51 344.15 L 907.29 344.26 L 906.52 344.58 L 905.28 344.63 L 901.69 344.72 L 900.79 344.77 L 901.62 344.84 L 905.93 344.94 L 906.79 344.98 L 905.47 345.03 L 903.07 345.06 L 901.08 345.1 L 900.93 345.16 L 901.81 345.32 L 902.86 345.36 L 903.17 345.37 L 903.9 345.37 L 908.24 345.39 L 909.91 345.41 L 911.75 345.48 L 913.05 345.51 L 915.96 345.53 L 918.93 345.52 L 926.62 345.48 Z M 923.21 346.54 L 918.21 346.6 L 918.58 346.66 L 919.18 346.7 L 920.29 346.73 L 918.48 346.77 L 913.53 346.81 L 913.11 346.9 L 913.39 346.93 L 915.67 346.95 L 918.6 346.97 L 921.65 346.94 L 927.12 346.87 L 929.23 346.84 L 933.55 346.82 L 938.73 346.77 L 939.61 346.67 L 932.24 346.64 L 928.78 346.55 L 923.21 346.54 Z M 923.65 346.83 L 923.01 346.74 L 924.03 346.72 L 925.65 346.72 L 928.34 346.75 L 927.35 346.81 L 923.65 346.83 Z M 440.8 350.71 L 437.56 350.71 L 435.46 350.69 L 435.39 350.67 L 438.27 350.62 L 440.37 350.59 L 440.64 350.59 L 445.19 350.56 L 447.14 350.54 L 450.66 350.49 L 451.7 350.48 L 453 350.46 L 453.8 350.46 L 455.99 350.44 L 457.72 350.44 L 460.43 350.46 L 460.84 350.47 L 461.79 350.47 L 463.06 350.46 L 467.49 350.4 L 472.6 350.36 L 474.64 350.34 L 476.22 350.3 L 477.22 350.34 L 476.99 350.35 L 476.22 350.37 L 478.12 350.43 L 478.98 350.44 L 483.72 350.5 L 484.41 350.5 L 490.76 350.53 L 492.11 350.54 L 495.94 350.56 L 497.84 350.66 L 495.28 350.74 L 489.61 350.78 L 482.98 350.77 L 477.49 350.74 L 477.88 350.7 L 476.45 350.66 L 474.23 350.65 L 472.3 350.71 L 473.69 350.74 L 468.65 350.79 L 462.61 350.81 L 456.45 350.8 L 450.92 350.76 L 447.72 350.73 L 447.69 350.73 L 445.85 350.72 L 440.8 350.71 Z M 539.7 350.47 L 537.86 350.41 L 533.88 350.38 L 529.21 350.35 L 525.21 350.31 L 523.18 350.22 L 525.71 350.15 L 529.73 350.12 L 530.68 350.13 L 532.22 350.15 L 536.94 350.25 L 539.25 350.29 L 541.21 350.38 L 541.19 350.38 L 539.7 350.47 Z M 240.23 350.06 L 242.58 350 L 247.02 349.95 L 251.35 349.98 L 253.37 350.03 L 254.38 350.12 L 254 350.18 L 250 350.27 L 246.56 350.32 L 243.51 350.38 L 241.08 350.33 L 239.06 350.27 L 236.83 350.19 L 237.22 350.12 L 240.23 350.06 Z M 378.88 350.34 L 376.26 350.29 L 373.64 350.28 L 370.21 350.25 L 368.39 350.3 L 361.32 350.29 L 358.69 350.28 L 354.78 350.29 L 354.12 350.3 L 353.64 350.3 L 353.18 350.28 L 353.27 350.26 L 353.85 350.23 L 354.51 350.21 L 355.08 350.2 L 362.02 350.23 L 363.89 350.22 L 368.65 350.18 L 369.6 350.17 L 370.6 350.15 L 376.71 350.11 L 380.14 350.08 L 381.76 350.08 L 383.56 350.14 L 385.38 350.16 L 387.02 350.14 L 387.43 350.1 L 387.2 350.07 L 386.07 350.03 L 393.02 349.85 L 396.29 349.81 L 396.46 349.83 L 397.29 349.87 L 397.56 349.89 L 401.86 349.93 L 401.9 349.93 L 400.68 350.07 L 398.31 350.11 L 391.03 350.17 L 387.59 350.21 L 383.14 350.22 L 380.51 350.25 L 380.5 350.29 L 378.88 350.34 Z M 575.24 349.72 L 566.39 349.67 L 566.39 349.61 L 573.9 349.49 L 576.51 349.42 L 577.77 349.42 L 576.51 349.5 L 577.85 349.56 L 581.12 349.61 L 588 349.67 L 591.39 349.73 L 591.54 349.77 L 588.98 349.78 L 584.11 349.77 L 575.24 349.72 Z M 553.71 350.23 L 552.04 350.26 L 550.27 350.27 L 548.69 350.28 L 546.65 350.28 L 545.52 350.27 L 542.35 350.2 L 540 350.17 L 538.28 350.16 L 537.61 350.14 L 538.56 350.08 L 539.91 350.05 L 542.11 350.02 L 544.75 350.01 L 547.42 350.01 L 549.05 350.07 L 550.89 350.12 L 555.02 350.2 L 553.71 350.23 Z M 564.73 349.95 L 566.48 349.98 L 566.63 350.03 L 564.66 350.14 L 561.59 350.16 L 556.53 350.01 L 556.06 349.98 L 557.37 349.98 L 559.42 349.99 L 561.22 350.01 L 562.05 350.02 L 562.29 350 L 561.78 349.98 L 559.05 349.94 L 558.46 349.91 L 560.84 349.91 L 564.73 349.95 Z M 191.18 349.36 L 195.41 349.41 L 196.65 349.5 L 194.24 349.57 L 192.01 349.59 L 189.31 349.56 L 188.35 349.54 L 187.44 349.53 L 186.27 349.51 L 186.1 349.46 L 187.71 349.43 L 189.12 349.38 L 191.18 349.36 Z"
    fill="#F4F1EA"
    fill-rule="evenodd"
    clip-rule="evenodd"
    stroke="#D9B75E"
    stroke-width="5"
    stroke-linejoin="round"
    vector-effect="non-scaling-stroke"
  />
</svg>
