<?xml version="1.0" encoding="UTF-8"?>
<svg
  xmlns="http://www.w3.org/2000/svg"
  viewBox="0 0 1000 700"
  role="img"
  aria-label="Tanzania map outline"
>
  <title>Tanzania</title>
  <metadata>
    CurioMint country outline.
    Source: Natural Earth v5.1.1, public domain.
    Country code: TZ.
  </metadata>
  <path
    d="M 342.55 354.27 L 341.31 354.25 L 335.32 354.21 L 331.6 354.17 L 331.01 354.17 L 329.62 354.17 L 329.03 354.17 L 328.57 354.16 L 328.32 354.14 L 328.02 354.12 L 326.91 354.1 L 325.9 354.09 L 320.16 354.09 L 313.27 354.06 L 310.26 354.06 L 309.17 354.04 L 308.02 354.01 L 306.46 353.95 L 305.58 353.93 L 302.67 353.89 L 299.43 353.88 L 288.99 353.88 L 287.29 353.88 L 285.67 353.87 L 284.09 353.85 L 281.14 353.8 L 280.4 353.79 L 279.49 353.78 L 278.76 353.78 L 277.22 353.79 L 276.46 353.79 L 275.63 353.78 L 273.32 353.76 L 271.28 353.75 L 270 353.76 L 268.85 353.78 L 267.18 353.79 L 263.77 353.78 L 262.14 353.72 L 262.15 353.65 L 263.66 353.59 L 251.71 353.54 L 249.85 353.54 L 247.11 353.57 L 245.47 353.58 L 243.86 353.58 L 242.5 353.57 L 234.78 353.46 L 232.93 353.42 L 232.33 353.36 L 232.34 353.31 L 231.79 353.27 L 230.19 353.25 L 227.1 353.23 L 225.83 353.22 L 224.11 353.18 L 222.85 353.17 L 221.64 353.17 L 220.55 353.17 L 219.52 353.17 L 218.45 353.16 L 218.17 353.15 L 217.91 353.12 L 217.61 353.11 L 216.9 353.11 L 216.64 353.11 L 216.43 353.11 L 215.86 353.12 L 214.94 353.12 L 210.79 353.15 L 210.17 353.15 L 209.49 353.16 L 208.46 353.15 L 207.6 353.14 L 206.09 353.11 L 205.15 353.1 L 203.22 353.1 L 201.51 353.11 L 199.88 353.13 L 198.18 353.15 L 194.82 353.15 L 191.28 353.12 L 187.97 353.09 L 185.34 353.05 L 179.91 352.95 L 174.81 352.82 L 170.8 352.68 L 168.71 352.55 L 166.79 352.42 L 160.92 352.17 L 143.82 351.7 L 141.66 351.57 L 140.88 351.48 L 138.05 351.3 L 132.03 351.07 L 127.23 350.94 L 115.71 350.71 L 109.44 350.62 L 105.95 350.59 L 98.25 350.52 L 87.47 350.37 L 84.94 350.33 L 83.12 350.27 L 79.08 350.08 L 73.64 349.96 L 71.37 349.9 L 70.39 349.84 L 69.05 349.67 L 66.64 349.51 L 66.43 349.46 L 68.03 349.37 L 74.03 349.23 L 76.6 349.15 L 77.36 349.04 L 75.84 348.92 L 68.05 348.6 L 64.79 348.37 L 58.55 348.17 L 55.86 348.06 L 55.74 348.05 L 54.22 347.94 L 54 347.82 L 55.59 347.7 L 60.44 347.47 L 61.2 347.35 L 60.91 347.3 L 60.66 347.28 L 79.43 347.27 L 83.37 347.29 L 86.64 347.29 L 87.01 347.3 L 87.93 347.28 L 88.18 347.27 L 88.22 347.25 L 88.52 347.23 L 89.02 347.22 L 90.39 347.21 L 90.8 347.2 L 90.97 347.18 L 91.12 347.17 L 92.42 347.16 L 93.27 347.16 L 94.14 347.17 L 95.48 347.17 L 96.19 347.17 L 100.45 347.13 L 103.32 347.08 L 106.07 347.06 L 106.88 347.05 L 108.66 347.03 L 109.67 347.01 L 111.72 346.92 L 112.55 346.9 L 118.01 346.82 L 120.43 346.77 L 122.31 346.71 L 122.52 346.7 L 123.77 346.65 L 125.16 346.55 L 126.12 346.52 L 130.33 346.45 L 133.41 346.35 L 135.43 346.33 L 139.01 346.35 L 139.28 346.33 L 139.03 346.3 L 138.58 346.28 L 138.24 346.26 L 138.33 346.23 L 138.89 346.21 L 142.2 346.12 L 142.8 346.09 L 142.83 346.06 L 142.64 346.04 L 143.07 346.02 L 145.31 345.99 L 145.5 345.99 L 145.8 345.97 L 146.01 345.96 L 147.34 345.96 L 147.5 345.96 L 147.54 345.96 L 149.07 345.96 L 149.16 345.96 L 149.3 345.95 L 149.42 345.94 L 151.56 345.93 L 152.11 345.93 L 152.74 345.92 L 153.79 345.9 L 157.55 345.87 L 159.65 345.83 L 159.76 345.8 L 157.34 345.77 L 156.78 345.77 L 158.25 345.74 L 159.77 345.71 L 161.53 345.69 L 163.73 345.68 L 164.71 345.68 L 165.49 345.67 L 166.01 345.66 L 166.25 345.64 L 168.37 345.66 L 170.6 345.65 L 172.53 345.63 L 173.74 345.59 L 173.7 345.58 L 173.34 345.56 L 173.3 345.55 L 174.43 345.52 L 175.13 345.49 L 175.27 345.47 L 175.19 345.45 L 174.86 345.44 L 173.82 345.43 L 173.53 345.42 L 173.6 345.41 L 173.98 345.39 L 173.96 345.38 L 173.17 345.36 L 171.2 345.33 L 170.8 345.31 L 171.33 345.29 L 173.82 345.24 L 174.06 345.23 L 174.59 345.22 L 172.72 345.22 L 168.97 345.23 L 167.1 345.24 L 166.05 345.23 L 164.21 345.21 L 163.22 345.2 L 162.23 345.2 L 161.43 345.21 L 160.6 345.21 L 159.53 345.21 L 159.31 345.2 L 159.09 345.18 L 158.88 345.17 L 158.54 345.17 L 157.48 345.16 L 152.27 345.11 L 151.62 345.1 L 150.5 345.11 L 149.55 345.12 L 147.96 345.16 L 147.58 345.17 L 147.57 345.17 L 147.23 345.15 L 146.53 345.14 L 146.07 345.13 L 146.43 345.11 L 144.97 345.1 L 143.76 345.08 L 141.75 345.04 L 141.58 345.01 L 142.5 344.98 L 144.25 344.94 L 144.27 344.91 L 144.53 344.88 L 145.18 344.87 L 149.79 344.78 L 150.31 344.75 L 148.47 344.77 L 145.6 344.79 L 143.91 344.8 L 142.35 344.8 L 141.46 344.78 L 141.77 344.75 L 142.42 344.73 L 144.34 344.7 L 145.11 344.68 L 145.45 344.67 L 146.11 344.62 L 149.15 344.49 L 150.22 344.46 L 152.88 344.41 L 154.43 344.39 L 156.13 344.39 L 157.87 344.4 L 159.55 344.4 L 160.45 344.39 L 161.59 344.35 L 162.51 344.34 L 163.55 344.34 L 164.41 344.34 L 168.59 344.38 L 169.25 344.38 L 169.98 344.38 L 170.56 344.37 L 171.67 344.36 L 172.91 344.35 L 174.26 344.34 L 175.3 344.33 L 176.13 344.3 L 176.47 344.27 L 176.13 344.18 L 176.83 344.12 L 179.59 343.96 L 178.91 343.92 L 178.06 343.9 L 176.84 343.88 L 175.39 343.87 L 173.89 343.87 L 174.95 343.79 L 174.71 343.75 L 172.3 343.75 L 172.7 343.73 L 173.19 343.73 L 174.49 343.71 L 173.88 343.68 L 174.33 343.66 L 175.15 343.64 L 175.58 343.62 L 174.95 343.56 L 174.67 343.55 L 175.58 343.51 L 175.39 343.49 L 174.67 343.48 L 174.49 343.47 L 174.52 343.45 L 175.55 343.34 L 175.62 343.31 L 175.03 343.28 L 173.13 343.29 L 171.87 343.27 L 171.1 343.24 L 170.32 343.19 L 169.97 343.18 L 168.97 343.16 L 167.65 343.13 L 167.17 343.11 L 167.6 343.1 L 167.85 343.09 L 168 343.05 L 167.54 343.01 L 165.98 343 L 164.41 342.99 L 159.12 342.96 L 158.38 342.95 L 157.18 342.93 L 156.33 342.92 L 153.97 342.9 L 152.94 342.89 L 152.5 342.87 L 152.59 342.86 L 152.78 342.85 L 152.96 342.84 L 153.04 342.84 L 152.88 342.83 L 152.13 342.81 L 151.66 342.78 L 150.2 342.74 L 149.71 342.72 L 149.4 342.68 L 149.06 342.68 L 148.07 342.66 L 147.74 342.66 L 147.22 342.67 L 146.58 342.67 L 145.88 342.66 L 145.74 342.65 L 145.96 342.65 L 146.26 342.64 L 146.43 342.63 L 146.17 342.61 L 145 342.6 L 144.73 342.58 L 144.99 342.57 L 145.6 342.55 L 146.24 342.54 L 146.33 342.54 L 146.98 342.53 L 147.97 342.53 L 148.57 342.54 L 148.98 342.54 L 149.44 342.55 L 150.4 342.55 L 151.89 342.54 L 155.93 342.53 L 157.68 342.54 L 159.61 342.55 L 160.63 342.53 L 163.5 342.48 L 164.66 342.47 L 167.7 342.45 L 170.71 342.43 L 173.55 342.44 L 174.82 342.45 L 180 342.45 L 194.68 342.45 L 209.35 342.45 L 211.06 342.45 L 224.03 342.45 L 238.7 342.45 L 253.37 342.45 L 267.63 342.45 L 268.05 342.45 L 282.73 342.45 L 297.4 342.45 L 312.09 342.45 L 326.63 342.45 L 326.76 342.45 L 336.64 342.45 L 341.43 342.45 L 356.1 342.45 L 370.78 342.45 L 383.07 342.45 L 385.45 342.45 L 399.53 342.45 L 400.13 342.45 L 414.8 342.45 L 421.37 342.45 L 427.47 342.45 L 427.8 342.45 L 429.05 342.45 L 429.2 342.49 L 430.28 342.5 L 433.26 342.5 L 439.26 342.56 L 456.47 342.73 L 473.68 342.9 L 486.67 343.02 L 490.89 343.06 L 508.1 343.23 L 525.31 343.4 L 528.95 343.43 L 542.52 343.57 L 559.72 343.73 L 576.92 343.9 L 594.13 344.07 L 611.33 344.24 L 628.54 344.41 L 645.75 344.57 L 662.95 344.74 L 680.16 344.91 L 697.38 345.08 L 703.51 345.14 L 714.58 345.25 L 721.2 345.31 L 722.43 345.34 L 723.84 345.5 L 724.02 345.51 L 725.63 345.69 L 724.17 345.69 L 723.37 345.7 L 723.09 345.72 L 723.21 345.74 L 721.69 345.75 L 719.78 345.76 L 718 345.79 L 716.83 345.81 L 716.42 345.82 L 716.04 345.84 L 715.83 345.86 L 715.96 345.87 L 716.54 345.88 L 717.85 345.88 L 718.26 345.9 L 717.94 345.92 L 717.3 345.95 L 717.53 345.96 L 721.37 345.96 L 723.08 345.96 L 724.77 345.97 L 726.29 345.98 L 727.41 346 L 728.01 346.02 L 729.4 346.11 L 730.21 346.14 L 731.31 346.16 L 735.67 346.22 L 742.52 346.3 L 749.35 346.39 L 756.2 346.48 L 763.04 346.56 L 769.87 346.65 L 776.72 346.74 L 783.03 346.82 L 783.56 346.82 L 790.41 346.91 L 797.24 346.99 L 804.08 347.08 L 810.93 347.17 L 817.77 347.25 L 824.61 347.34 L 831.46 347.43 L 838.3 347.51 L 845.1 347.6 L 845.65 347.61 L 847.06 347.61 L 847.58 347.65 L 847.14 347.7 L 845.65 347.72 L 843.46 347.74 L 845.23 347.75 L 846.44 347.76 L 847.14 347.76 L 847.34 347.79 L 847.24 347.82 L 846.94 347.85 L 846.42 347.87 L 843.86 347.95 L 842.83 347.96 L 842.37 347.94 L 842.64 347.92 L 843.16 347.89 L 843.42 347.86 L 842.92 347.84 L 841.5 347.91 L 840.27 347.94 L 838.53 347.93 L 839.92 347.97 L 840.14 347.98 L 840.42 348.06 L 840.18 348.08 L 839.63 348.08 L 838.38 348.08 L 837.69 348.08 L 837.39 348.09 L 836.59 348.12 L 836.46 348.14 L 837.61 348.14 L 840.18 348.12 L 840.23 348.14 L 841.12 348.17 L 841.27 348.18 L 840.94 348.2 L 837.89 348.24 L 837.36 348.25 L 835.77 348.31 L 833.32 348.38 L 833.06 348.39 L 833.69 348.4 L 834.56 348.39 L 835.8 348.36 L 836.28 348.37 L 832.81 348.55 L 831.94 348.58 L 830.82 348.61 L 829.98 348.62 L 829.05 348.63 L 828.32 348.64 L 828.08 348.66 L 828.43 348.67 L 829.06 348.67 L 829.62 348.68 L 829.73 348.7 L 828.65 348.76 L 826.34 348.84 L 823.54 348.92 L 820.92 348.95 L 822.02 348.95 L 821.49 348.98 L 821.42 349.05 L 820.65 349.07 L 819.63 349.1 L 818.17 349.15 L 816.4 349.2 L 815.83 349.23 L 815.53 349.26 L 815.5 349.35 L 815.16 349.36 L 814.64 349.37 L 814.19 349.39 L 813.88 349.4 L 813.82 349.4 L 813.39 349.44 L 812.62 349.47 L 812.03 349.5 L 812.11 349.53 L 812.41 349.54 L 813.41 349.56 L 813.76 349.57 L 814.52 349.63 L 814.85 349.64 L 815.32 349.65 L 817.09 349.67 L 818.34 349.69 L 818.49 349.69 L 818.8 349.75 L 818.6 349.78 L 818.04 349.81 L 817.09 349.83 L 817.7 349.87 L 817.98 349.95 L 818.98 349.98 L 819.86 349.99 L 820.84 350 L 821.67 350.01 L 822.02 350.02 L 822.14 350.04 L 822.49 350.06 L 823.01 350.07 L 823.66 350.08 L 824.12 350.09 L 824.53 350.09 L 825.58 350.09 L 826.13 350.1 L 826.4 350.11 L 826.63 350.12 L 826.99 350.12 L 828 350.13 L 830.23 350.13 L 831.1 350.14 L 831.91 350.14 L 832.78 350.14 L 832.7 350.12 L 832 350.12 L 830.71 350.11 L 829.13 350.09 L 831.43 350.1 L 833.1 350.12 L 837.53 350.19 L 840.18 350.25 L 842.29 350.27 L 842.92 350.29 L 844.12 350.32 L 844.83 350.33 L 846.2 350.35 L 846.88 350.36 L 847.41 350.38 L 847.73 350.39 L 847.84 350.41 L 848.34 350.45 L 849.53 350.48 L 850.98 350.5 L 852.27 350.48 L 852.62 350.52 L 852.25 350.58 L 852.29 350.62 L 853.91 350.65 L 853.86 350.63 L 853.72 350.62 L 853.37 350.6 L 854.83 350.61 L 855.99 350.61 L 858.28 350.64 L 859.5 350.64 L 861.93 350.65 L 862.94 350.66 L 864.12 350.66 L 867.06 350.66 L 867.63 350.67 L 867.97 350.69 L 869.45 350.72 L 870.12 350.77 L 873.95 350.86 L 874.21 350.86 L 874.12 350.88 L 873.72 350.89 L 873.31 350.89 L 873.11 350.9 L 873.8 350.99 L 873.71 351.03 L 872.51 351.03 L 871.7 351.05 L 871.1 351.08 L 870.63 351.1 L 869.73 351.11 L 868.98 351.11 L 868.4 351.1 L 868.13 351.08 L 864.76 351.12 L 864.67 351.12 L 864.03 351.13 L 863.58 351.16 L 863.39 351.18 L 863.04 351.2 L 862.11 351.22 L 861.08 351.24 L 860.57 351.24 L 859.9 351.24 L 859.28 351.25 L 859.35 351.26 L 859.71 351.27 L 859.93 351.28 L 859.46 351.3 L 858.36 351.3 L 857.08 351.3 L 856.1 351.3 L 856.88 351.32 L 857.68 351.34 L 858.22 351.36 L 858.23 351.39 L 857.87 351.41 L 857.16 351.44 L 856.31 351.46 L 854.19 351.5 L 853.25 351.55 L 851.85 351.71 L 851.94 351.73 L 852.27 351.76 L 853.29 351.81 L 853.57 351.83 L 853.09 351.86 L 852.82 351.88 L 854.03 351.93 L 853.64 351.95 L 850.07 352.03 L 852.52 352.02 L 854.27 351.98 L 855.42 351.93 L 856.1 351.89 L 857.34 351.91 L 858.3 351.93 L 858.41 351.95 L 857.14 351.97 L 860.16 351.96 L 861.53 351.96 L 862.94 351.98 L 865.11 352.02 L 865.37 352.04 L 864.85 352.07 L 863.67 352.12 L 863.56 352.14 L 864.42 352.19 L 864.5 352.24 L 864.85 352.27 L 866.09 352.25 L 866.5 352.25 L 866.24 352.29 L 865.24 352.33 L 862.66 352.4 L 860 352.53 L 858.83 352.57 L 858.28 352.56 L 858.03 352.56 L 857.77 352.57 L 857.14 352.57 L 857.7 352.59 L 857.52 352.64 L 857.74 352.66 L 856.59 352.65 L 856.58 352.67 L 856.1 352.69 L 854.79 352.67 L 854.13 352.66 L 853.37 352.65 L 854 352.68 L 854.04 352.69 L 853.46 352.7 L 852.27 352.71 L 853.29 352.75 L 853.95 352.79 L 854.3 352.82 L 854.4 352.87 L 853.87 352.95 L 854.12 352.99 L 856.79 353.04 L 857.79 353.07 L 858.49 353.11 L 858.83 353.14 L 858.68 353.26 L 858.23 353.28 L 861.03 353.3 L 861.51 353.31 L 861.73 353.32 L 862.06 353.33 L 862.94 353.33 L 864.54 353.33 L 865.02 353.34 L 865.06 353.36 L 865.4 353.39 L 866.11 353.41 L 866.99 353.42 L 867.94 353.43 L 868.98 353.44 L 869.67 353.46 L 870.59 353.51 L 871.47 353.54 L 873.72 353.57 L 874.21 353.58 L 873.09 353.58 L 872.13 353.58 L 871.56 353.58 L 870.38 353.56 L 870.23 353.56 L 868.69 353.54 L 867.06 353.5 L 865.84 353.49 L 864.3 353.49 L 863.4 353.5 L 862.94 353.5 L 862.6 353.51 L 860.98 353.55 L 862.19 353.55 L 867.03 353.55 L 865.97 353.57 L 865.7 353.58 L 866.32 353.59 L 867.89 353.59 L 869.25 353.6 L 869.26 353.62 L 868.79 353.65 L 868.69 353.68 L 868.88 353.69 L 869.6 353.7 L 869.78 353.7 L 869.8 353.73 L 869.78 353.73 L 869.35 353.75 L 869.29 353.75 L 869.46 353.75 L 869.84 353.76 L 870.2 353.76 L 870.38 353.77 L 870.15 353.78 L 869.69 353.79 L 869.37 353.8 L 869.53 353.82 L 870.12 353.84 L 870.12 353.85 L 869.78 353.87 L 870.92 353.86 L 872.3 353.85 L 873.59 353.84 L 874.48 353.82 L 875.45 353.82 L 876.61 353.84 L 880.06 353.92 L 881.43 353.96 L 881.81 354 L 880.55 354.05 L 880.49 354.06 L 880.96 354.07 L 881.57 354.08 L 881.92 354.09 L 881.92 354.11 L 881.47 354.13 L 881.37 354.15 L 881.62 354.19 L 881.35 354.21 L 880.27 354.24 L 879.2 354.25 L 878.49 354.26 L 877.71 354.25 L 876.44 354.26 L 875.44 354.26 L 875.03 354.28 L 875.05 354.3 L 875.3 354.32 L 876.02 354.32 L 876.93 354.31 L 878.59 354.31 L 878.79 354.3 L 879.19 354.29 L 879.98 354.3 L 880.49 354.31 L 880.76 354.31 L 881.1 354.31 L 881.98 354.32 L 882.11 354.33 L 881.94 354.35 L 881.92 354.36 L 882.47 354.37 L 884.38 354.41 L 885.06 354.43 L 886.01 354.51 L 886.85 354.53 L 887.93 354.55 L 887.72 354.55 L 887.08 354.56 L 886.9 354.58 L 887.3 354.59 L 887.69 354.6 L 888.75 354.62 L 889.21 354.63 L 888.94 354.66 L 889.67 354.69 L 889.01 354.7 L 887.4 354.71 L 886.05 354.73 L 885.69 354.75 L 886.34 354.75 L 889.52 354.75 L 890.12 354.75 L 890.38 354.76 L 891.02 354.8 L 891.52 354.81 L 892.84 354.83 L 893.46 354.84 L 894 354.86 L 894.53 354.9 L 893.95 354.93 L 892.45 354.94 L 890.12 354.94 L 890.8 354.96 L 893.08 354.99 L 893.16 355 L 892.3 355.01 L 889.54 355.03 L 887.07 355.04 L 887.03 355.06 L 888.04 355.09 L 887.89 355.12 L 887.3 355.14 L 886.37 355.15 L 885.19 355.17 L 887.25 355.16 L 891 355.08 L 892.64 355.09 L 893.71 355.1 L 896.11 355.09 L 897.81 355.12 L 898.86 355.13 L 900.04 355.13 L 901.11 355.13 L 903.11 355.16 L 907.97 355.3 L 908.12 355.38 L 908.79 355.42 L 909.61 355.41 L 910.02 355.38 L 910.03 355.36 L 909.63 355.34 L 908.9 355.31 L 909.08 355.29 L 910.03 355.29 L 911.56 355.3 L 912.73 355.3 L 915.21 355.32 L 916.78 355.33 L 919.98 355.35 L 920.37 355.35 L 920.61 355.35 L 920.87 355.36 L 920.72 355.38 L 920.19 355.4 L 919.94 355.42 L 920.6 355.45 L 920.84 355.46 L 920.25 355.47 L 919.47 355.47 L 919.23 355.48 L 919.65 355.49 L 920.06 355.49 L 920.49 355.49 L 920.87 355.49 L 922.21 355.5 L 922.84 355.51 L 923.11 355.5 L 923.17 355.48 L 923.42 355.47 L 923.91 355.47 L 924.75 355.48 L 925.73 355.49 L 927.59 355.52 L 928.58 355.53 L 928.57 355.52 L 928.71 355.51 L 928.92 355.5 L 929.13 355.49 L 929.76 355.5 L 930.24 355.5 L 930.72 355.5 L 931.37 355.49 L 930.01 355.48 L 925.85 355.45 L 928.58 355.39 L 929.65 355.4 L 930.11 355.41 L 930.35 355.43 L 930.78 355.45 L 931.48 355.46 L 933.28 355.48 L 934.11 355.49 L 934.55 355.5 L 937.13 355.6 L 937.94 355.62 L 938.14 355.61 L 940.84 355.62 L 941.23 355.63 L 943.81 355.61 L 944.19 355.59 L 943.23 355.56 L 941.82 355.57 L 941.45 355.55 L 941.72 355.54 L 942.45 355.53 L 943.46 355.53 L 944.21 355.53 L 944.56 355.55 L 944.83 355.56 L 945.3 355.57 L 946 355.6 L 945.26 355.62 L 943.94 355.64 L 942.91 355.67 L 943.42 355.66 L 944.49 355.67 L 945 355.67 L 944.13 355.71 L 944.01 355.73 L 944.23 355.74 L 944.68 355.75 L 945.05 355.76 L 945 355.78 L 943.73 355.82 L 941.17 355.87 L 938.3 355.91 L 933.11 355.94 L 930.07 355.98 L 925.34 356.06 L 923.83 356.09 L 922.89 356.11 L 920.65 356.12 L 910.63 356.26 L 909.11 356.28 L 900.84 356.34 L 892.81 356.43 L 890.78 356.45 L 877.34 356.5 L 871.16 356.51 L 869.78 356.52 L 868.51 356.53 L 852.8 356.75 L 850.93 356.77 L 848.91 356.78 L 846.78 356.78 L 845.09 356.77 L 841.83 356.74 L 839.94 356.73 L 837.47 356.75 L 834.7 356.76 L 824.22 356.76 L 821.51 356.77 L 819.36 356.8 L 817.95 356.82 L 816.28 356.83 L 815.22 356.84 L 812.03 356.89 L 810.56 356.91 L 809.68 356.91 L 807.95 356.9 L 806.99 356.9 L 806.12 356.9 L 804.49 356.91 L 802.11 356.92 L 800.82 356.94 L 799.02 356.98 L 791.12 357.08 L 789.12 357.12 L 789.08 357.12 L 786.73 357.1 L 780.38 357.07 L 777.53 357.04 L 773.11 356.96 L 770.24 356.93 L 766.53 356.92 L 765.74 356.92 L 763.97 356.93 L 763.05 356.94 L 762.09 356.93 L 760.52 356.91 L 759.74 356.91 L 759.48 356.9 L 759.06 356.89 L 758.92 356.89 L 758.43 356.89 L 758.03 356.89 L 757.78 356.89 L 757.78 356.9 L 757.15 356.9 L 755.34 356.9 L 750.76 356.91 L 750.01 356.92 L 749.29 356.93 L 746.03 356.93 L 744.7 356.94 L 739.67 356.99 L 739.12 357 L 738.91 357.02 L 737.68 357.08 L 736.93 357.1 L 737.04 357.13 L 735.12 357.19 L 734.7 357.22 L 735.02 357.24 L 735.5 357.26 L 735.65 357.27 L 734.99 357.29 L 733.99 357.31 L 732.33 357.33 L 726.5 357.37 L 722.92 357.42 L 721.43 357.44 L 719.72 357.44 L 717.18 357.44 L 715.44 357.45 L 712.54 357.48 L 710.86 357.48 L 709.89 357.49 L 709.27 357.51 L 708.82 357.53 L 708.37 357.54 L 707.7 357.55 L 707.16 357.56 L 705.64 357.56 L 703.8 357.56 L 699.84 357.54 L 699.18 357.54 L 697.76 357.51 L 696.83 357.5 L 696.08 357.5 L 695.45 357.51 L 694.82 357.52 L 694.05 357.52 L 691.17 357.53 L 687.67 357.52 L 680.87 357.49 L 678.05 357.47 L 675.25 357.43 L 673.07 357.38 L 672.11 357.34 L 670.85 357.35 L 670.14 357.36 L 669.38 357.36 L 661.97 357.38 L 660.78 357.37 L 658.8 357.35 L 657.21 357.35 L 656.45 357.34 L 655.09 357.35 L 651.46 357.42 L 649.24 357.48 L 648.52 357.49 L 647.6 357.5 L 644.64 357.52 L 643.86 357.53 L 643.43 357.54 L 642.84 357.55 L 640.7 357.55 L 639.51 357.56 L 634.48 357.57 L 633.1 357.57 L 631.08 357.55 L 630.64 357.55 L 630.13 357.54 L 629.65 357.51 L 629.02 357.5 L 619.66 357.5 L 619.28 357.51 L 618.87 357.51 L 618.31 357.52 L 615.79 357.53 L 612.88 357.54 L 611.7 357.54 L 610.87 357.54 L 609.63 357.52 L 608.67 357.52 L 605.36 357.53 L 604.44 357.52 L 603.72 357.49 L 603.48 357.47 L 604 357.44 L 603.46 357.42 L 603.27 357.38 L 602.83 357.36 L 601.53 357.35 L 600.81 357.34 L 600.26 357.34 L 599.74 357.33 L 599.07 357.32 L 598.3 357.31 L 596.52 357.3 L 595.74 357.3 L 592.81 357.27 L 591.14 357.25 L 589.99 357.25 L 588.44 357.26 L 586.94 357.25 L 586.22 357.22 L 586.98 357.19 L 585.6 357.16 L 584.53 357.15 L 581.5 357.15 L 580.99 357.15 L 578.72 357.13 L 575.44 357.12 L 574.38 357.13 L 571.88 357.19 L 570.46 357.21 L 566.43 357.22 L 564.96 357.24 L 565.58 357.27 L 564.61 357.28 L 563.73 357.3 L 563.05 357.32 L 562.49 357.35 L 561.69 357.36 L 557.36 357.38 L 557.27 357.38 L 555.39 357.39 L 554.07 357.39 L 552.78 357.38 L 551.9 357.38 L 551.8 357.4 L 550.89 357.4 L 550.53 357.39 L 550.32 357.38 L 549.89 357.37 L 549.18 357.36 L 548.81 357.36 L 548.49 357.36 L 547.97 357.37 L 547.95 357.37 L 546.88 357.38 L 546.54 357.38 L 544.56 357.37 L 543.82 357.37 L 543.29 357.36 L 543.15 357.35 L 539.8 357.35 L 506.36 357.35 L 506.23 357.34 L 506.23 357.26 L 506.05 357.24 L 505.65 357.22 L 505.27 357.21 L 505.09 357.2 L 504.75 357.19 L 504 357.18 L 503.24 357.17 L 502.55 357.13 L 501.05 357.11 L 500.71 357.1 L 500.11 357.07 L 498.61 357.04 L 496.67 357.02 L 493.21 357 L 492.55 357 L 491.96 357.01 L 490.94 357.02 L 490.41 357.02 L 489.9 357.01 L 488.12 356.95 L 488.6 356.95 L 489.29 356.94 L 489.76 356.94 L 489.76 356.93 L 488.5 356.91 L 487.45 356.89 L 486.74 356.87 L 486.48 356.83 L 486.28 356.82 L 485.79 356.81 L 485.15 356.8 L 483.7 356.79 L 483.32 356.79 L 483.07 356.77 L 482.65 356.76 L 478.83 356.7 L 478.22 356.68 L 477.99 356.64 L 476.92 356.58 L 476.57 356.55 L 476.97 356.52 L 478.57 356.48 L 479.31 356.47 L 480.78 356.41 L 480.96 356.39 L 480.96 356.33 L 481.99 356.24 L 481.69 356.2 L 482.17 356.19 L 483.15 356.18 L 482.94 356.16 L 482.46 356.15 L 481.94 356.14 L 481.6 356.13 L 481.46 356.13 L 480.96 356.12 L 482.02 356.09 L 481.95 356.05 L 481.19 356.03 L 479.47 355.99 L 479.25 355.98 L 479.32 355.95 L 479.09 355.94 L 478.81 355.94 L 478.55 355.93 L 477.85 355.94 L 477.17 355.93 L 476.52 355.91 L 475.99 355.89 L 475.62 355.88 L 475.54 355.86 L 475.49 355.86 L 475.65 355.84 L 476.4 355.81 L 476.57 355.79 L 476.23 355.77 L 474.69 355.72 L 474.34 355.69 L 475.96 355.54 L 475.99 355.52 L 475.81 355.5 L 475.14 355.47 L 474.38 355.4 L 471.72 355.29 L 471.11 355.24 L 471.27 355.23 L 471.98 355.2 L 472.15 355.18 L 472.04 355.17 L 471.11 355.12 L 468.7 355.06 L 467.78 355.03 L 459.78 354.86 L 459.69 354.85 L 458.24 354.83 L 457.88 354.82 L 456.1 354.79 L 455.63 354.78 L 455.23 354.75 L 455.03 354.73 L 454.53 354.71 L 452.14 354.69 L 444.34 354.55 L 442.02 354.53 L 440.64 354.5 L 440.03 354.5 L 437.31 354.44 L 436.2 354.43 L 435.44 354.41 L 435.34 354.41 L 432.85 354.38 L 430.07 354.37 L 428.77 354.39 L 427.79 354.41 L 425.9 354.43 L 424.71 354.47 L 426.2 354.53 L 426.05 354.56 L 425.48 354.6 L 425.43 354.63 L 425.15 354.64 L 424.48 354.66 L 423.3 354.67 L 423.3 354.68 L 421.98 354.71 L 421.04 354.7 L 420.17 354.67 L 418.24 354.64 L 415.97 354.62 L 414.09 354.6 L 412.01 354.58 L 409.97 354.54 L 407.77 354.52 L 405.2 354.53 L 403.08 354.55 L 401.04 354.56 L 401 354.56 L 398.9 354.55 L 396.45 354.54 L 393.74 354.53 L 391.79 354.54 L 389.9 354.56 L 387.41 354.57 L 384.08 354.57 L 382.53 354.56 L 381.29 354.55 L 380.33 354.52 L 378.95 354.47 L 377.46 354.44 L 372.96 354.39 L 371.53 354.38 L 370.81 354.38 L 369.55 354.4 L 368.86 354.4 L 367.9 354.4 L 366.23 354.39 L 365.11 354.39 L 364.58 354.39 L 363.48 354.41 L 362.75 354.41 L 362.45 354.41 L 360.11 354.39 L 357.95 354.39 L 357.22 354.38 L 352.28 354.31 L 348.27 354.24 L 346.86 354.23 L 345.31 354.23 L 343.78 354.24 L 342.55 354.27 Z M 901.62 351.76 L 902.84 351.79 L 902.71 351.83 L 901.43 351.93 L 899.15 352.02 L 898.08 352.04 L 897.92 352.06 L 897.94 352.06 L 897.83 352.07 L 897.29 352.1 L 897.04 352.11 L 896.35 352.13 L 896.2 352.14 L 895.81 352.15 L 894.86 352.15 L 892.64 352.14 L 890.31 352.16 L 889.29 352.19 L 888.81 352.22 L 888.04 352.24 L 884.87 352.26 L 883.25 352.27 L 881.92 352.27 L 880.3 352.25 L 878.18 352.22 L 876.89 352.2 L 877.64 352.19 L 878.99 352.19 L 879.67 352.19 L 879.69 352.19 L 879.9 352.18 L 880.16 352.17 L 880.27 352.17 L 880.46 352.15 L 880.91 352.15 L 881.46 352.15 L 881.92 352.15 L 885.37 352.09 L 886.54 352.06 L 885.79 352.04 L 886.24 352.02 L 887.16 352.01 L 888.41 352.01 L 889.88 352.01 L 891.22 352 L 893.72 351.98 L 895.09 351.98 L 894.65 351.96 L 893.89 351.96 L 891.82 351.97 L 891.82 351.96 L 892.78 351.95 L 893.63 351.95 L 895.09 351.93 L 896.81 351.92 L 897.55 351.9 L 898.1 351.87 L 898.75 351.85 L 899.54 351.83 L 900.25 351.82 L 900.65 351.81 L 901.46 351.78 L 901.62 351.76 Z M 873.39 349.91 L 873.68 349.92 L 875.84 349.99 L 875.47 350.05 L 873.45 350.09 L 870.58 350.11 L 867.63 350.09 L 866.47 350.07 L 865.39 350.05 L 864.61 350.02 L 863.03 349.9 L 863.21 349.88 L 861.41 349.89 L 861.42 349.9 L 862.17 349.92 L 862.66 349.94 L 862.56 349.97 L 862.17 349.98 L 859.93 349.97 L 860.29 349.94 L 859.83 349.92 L 857.74 349.88 L 855.22 349.81 L 854.52 349.8 L 853.91 349.79 L 852.82 349.8 L 852.82 349.81 L 853.29 349.81 L 853.35 349.82 L 853.28 349.82 L 853.37 349.83 L 852.29 349.82 L 851.95 349.84 L 852.23 349.87 L 853.09 349.89 L 852.9 349.89 L 852.77 349.89 L 852.47 349.9 L 851.72 349.89 L 851 349.88 L 850.72 349.88 L 850.54 349.87 L 846.5 349.79 L 845.74 349.77 L 844.72 349.7 L 844.01 349.68 L 846.89 349.62 L 846.24 349.54 L 844.75 349.45 L 845.1 349.37 L 845.01 349.35 L 845.09 349.34 L 845.31 349.32 L 845.65 349.31 L 845.89 349.32 L 846.51 349.33 L 846.74 349.34 L 848.08 349.3 L 850.95 349.26 L 852.27 349.23 L 852.93 349.19 L 853.49 349.09 L 854.95 349.06 L 855.89 349.1 L 858.34 349.18 L 858.83 349.23 L 858.26 349.29 L 858.23 349.31 L 858.47 349.33 L 859.18 349.37 L 859.32 349.39 L 859.69 349.41 L 861.23 349.46 L 862.11 349.52 L 862.6 349.53 L 864.3 349.53 L 864.48 349.55 L 864.28 349.57 L 863.93 349.59 L 863.76 349.61 L 863.8 349.63 L 863.95 349.64 L 864.28 349.66 L 864.85 349.68 L 863.89 349.7 L 863.48 349.71 L 863.21 349.73 L 864.37 349.72 L 865.09 349.73 L 865.69 349.74 L 866.5 349.75 L 866.56 349.73 L 867.08 349.72 L 867.73 349.72 L 868.13 349.74 L 868.49 349.73 L 868.59 349.73 L 868.69 349.73 L 869.98 349.73 L 869.99 349.7 L 869.61 349.66 L 869.78 349.63 L 871.18 349.66 L 871.9 349.7 L 873.39 349.91 Z M 881.37 348.63 L 881.41 348.58 L 881.72 348.56 L 882.47 348.54 L 881.97 348.53 L 882.97 348.52 L 885.79 348.53 L 885.15 348.51 L 883.47 348.48 L 883.01 348.45 L 884.27 348.46 L 885.84 348.46 L 887.26 348.46 L 888.04 348.44 L 887.12 348.44 L 886.34 348.44 L 885.69 348.43 L 885.19 348.42 L 886.44 348.42 L 888.36 348.41 L 889.63 348.41 L 891.08 348.42 L 891.87 348.41 L 892.42 348.39 L 890.8 348.4 L 888.84 348.39 L 885.19 348.35 L 884.4 348.36 L 883.42 348.35 L 882.52 348.34 L 881.92 348.32 L 882.78 348.32 L 883.35 348.33 L 883.89 348.33 L 884.64 348.33 L 885.41 348.33 L 888.14 348.34 L 889.63 348.34 L 889.03 348.33 L 889.64 348.3 L 889.34 348.28 L 888.48 348.27 L 887.4 348.29 L 887.81 348.26 L 888.04 348.25 L 887.57 348.24 L 886.95 348.23 L 886.14 348.23 L 885.19 348.24 L 885.37 348.23 L 885.5 348.22 L 885.79 348.21 L 885.47 348.2 L 885.57 348.18 L 885.99 348.16 L 886.59 348.16 L 887.54 348.17 L 887.97 348.16 L 887.91 348.15 L 887.4 348.14 L 886.71 348.13 L 884.11 348.11 L 884.34 348.1 L 885.45 348.08 L 885.79 348.07 L 884.64 348.08 L 883.99 348.05 L 884.42 348.03 L 885.5 348.03 L 886.9 348.04 L 887.21 348.02 L 886.31 348 L 885.01 347.99 L 884.11 347.97 L 884.07 347.96 L 884.56 347.92 L 884.66 347.9 L 884.84 347.9 L 885.03 347.91 L 885.26 347.91 L 885.5 347.91 L 886.12 347.92 L 886.56 347.93 L 886.82 347.95 L 886.9 347.95 L 887.79 347.95 L 888.09 347.94 L 888.26 347.93 L 888.75 347.92 L 889.16 347.93 L 890.45 347.95 L 890.72 347.96 L 894.42 348 L 895.09 348.01 L 895.15 348.02 L 895.34 348.04 L 895.67 348.04 L 896.2 348.03 L 896.14 348.02 L 895.84 348.01 L 895.85 347.99 L 896.8 347.97 L 896.89 347.98 L 897.17 347.99 L 897.29 348 L 897.94 347.98 L 898.41 347.95 L 898.59 347.92 L 898.43 347.91 L 899.52 347.92 L 899.52 347.95 L 899.31 347.98 L 900.21 348.03 L 899.31 348.06 L 897.89 348.08 L 896.8 348.09 L 897.2 348.11 L 896.95 348.14 L 896.46 348.17 L 896.2 348.19 L 896.97 348.24 L 897.04 348.24 L 897.78 348.24 L 897.85 348.22 L 897.7 348.21 L 897.83 348.2 L 898.85 348.21 L 898.98 348.24 L 898.43 348.29 L 898.41 348.37 L 897.83 348.4 L 898.43 348.41 L 897.47 348.43 L 895.09 348.55 L 894.48 348.56 L 894.15 348.57 L 894.03 348.58 L 894 348.6 L 893.63 348.62 L 892.93 348.63 L 892.47 348.61 L 892.86 348.59 L 892.42 348.59 L 891.88 348.61 L 891.6 348.62 L 891.22 348.63 L 891.49 348.64 L 891.06 348.66 L 890.16 348.67 L 889.03 348.68 L 888.26 348.69 L 888.04 348.68 L 888.32 348.67 L 889.03 348.67 L 889.03 348.66 L 887.89 348.66 L 887.02 348.67 L 886.37 348.67 L 885.79 348.66 L 883 348.66 L 881.84 348.65 L 881.37 348.63 Z M 889.3 352.27 L 891.88 352.26 L 893.69 352.26 L 894.07 352.28 L 893.21 352.3 L 889.87 352.37 L 887.49 352.41 L 886.16 352.4 L 885.68 352.38 L 886.16 352.34 L 887.11 352.31 L 889.3 352.27 Z M 847.95 349.13 L 847.89 349.15 L 848.28 349.18 L 848.94 349.19 L 848.39 349.21 L 848.89 349.23 L 848.89 349.25 L 847.9 349.26 L 847.01 349.26 L 846.85 349.24 L 847.01 349.21 L 847.23 349.17 L 847.01 349.14 L 847.95 349.13 Z M 875.95 348.6 L 876.65 348.61 L 877.83 348.62 L 878.67 348.64 L 879.61 348.67 L 880.88 348.68 L 882.1 348.68 L 882.9 348.7 L 882.71 348.72 L 880.55 348.72 L 879.15 348.7 L 877.92 348.68 L 877.22 348.66 L 876.28 348.64 L 875.43 348.62 L 875.95 348.6 Z"
    fill="#F4F1EA"
    fill-rule="evenodd"
    clip-rule="evenodd"
    stroke="#D9B75E"
    stroke-width="5"
    stroke-linejoin="round"
    vector-effect="non-scaling-stroke"
  />
</svg>
