<?xml version="1.0" encoding="UTF-8"?>
<svg
  xmlns="http://www.w3.org/2000/svg"
  viewBox="0 0 1200 600"
  role="img"
  aria-label="Puerto Rico location"
>
  <title>Puerto Rico</title>
  <metadata>
    CurioMint locator highlight.
    Source: Natural Earth v5.1.1, public domain.
    Country code: PR.
  </metadata>
  <path
    d="M 373.81 239.62 L 373.85 239.65 L 373.85 239.67 L 373.83 239.7 L 373.8 239.76 L 373.79 239.77 L 373.77 239.79 L 373.77 239.81 L 373.76 239.82 L 373.72 239.82 L 373.69 239.82 L 373.68 239.81 L 373.66 239.78 L 373.56 239.73 L 373.54 239.69 L 373.56 239.64 L 373.6 239.62 L 373.79 239.61 L 373.81 239.62 Z M 382.17 239.62 L 382.14 239.59 L 382.1 239.6 L 382.03 239.63 L 381.77 239.69 L 381.72 239.71 L 381.65 239.69 L 381.55 239.7 L 381.45 239.69 L 381.4 239.59 L 381.45 239.59 L 381.47 239.59 L 381.53 239.59 L 381.6 239.56 L 381.66 239.53 L 381.71 239.49 L 381.74 239.48 L 382 239.44 L 382.05 239.44 L 382.16 239.48 L 382.34 239.49 L 382.38 239.5 L 382.41 239.54 L 382.39 239.56 L 382.3 239.55 L 382.28 239.56 L 382.21 239.6 L 382.2 239.62 L 382.17 239.62 Z M 382.4 239.07 L 382.36 239 L 382.22 238.88 L 382.22 238.86 L 382.3 238.86 L 382.4 238.88 L 382.48 238.92 L 382.52 238.98 L 382.51 238.98 L 382.47 238.98 L 382.5 239 L 382.46 239 L 382.43 239 L 382.41 238.98 L 382.4 238.95 L 382.38 238.95 L 382.41 239.01 L 382.42 239.04 L 382.4 239.07 Z M 381.24 239.07 L 381.22 239.11 L 381.25 239.13 L 381.27 239.15 L 381.32 239.12 L 381.31 239.15 L 381.32 239.18 L 381.36 239.23 L 381.33 239.25 L 381.32 239.28 L 381.29 239.28 L 381.26 239.24 L 381.22 239.24 L 381.21 239.27 L 381.24 239.31 L 381.21 239.34 L 381.17 239.33 L 381.11 239.31 L 381.06 239.32 L 381 239.35 L 380.93 239.37 L 380.87 239.39 L 380.82 239.45 L 380.7 239.62 L 380.69 239.71 L 380.64 239.77 L 380.63 239.78 L 380.55 239.79 L 380.53 239.81 L 380.57 239.91 L 380.5 239.97 L 380.38 240.04 L 380.2 240.1 L 380.13 240.1 L 380.05 240.08 L 379.98 240.07 L 379.94 240.08 L 379.84 240.12 L 379.82 240.12 L 379.72 240.12 L 379.65 240.14 L 379.46 240.24 L 379.41 240.24 L 379.38 240.24 L 379.35 240.24 L 379.32 240.26 L 379.3 240.24 L 379.3 240.23 L 379.3 240.21 L 379.33 240.2 L 379.34 240.19 L 379.33 240.16 L 379.3 240.14 L 379.23 240.2 L 379.2 240.21 L 379.15 240.2 L 379.06 240.19 L 379.02 240.18 L 379.01 240.16 L 379 240.14 L 378.98 240.12 L 378.94 240.1 L 378.91 240.09 L 378.85 240.1 L 378.77 240.11 L 378.68 240.18 L 378.61 240.17 L 378.55 240.12 L 378.49 240.06 L 378.44 240.02 L 378.37 240.04 L 378.33 240.04 L 378.29 240.06 L 378.24 240.07 L 378.13 240.07 L 378.1 240.09 L 378.06 240.11 L 378.02 240.12 L 377.97 240.1 L 377.95 240.11 L 377.92 240.12 L 377.9 240.08 L 377.84 240.08 L 377.71 240.1 L 377.68 240.09 L 377.58 240.05 L 377.45 240.05 L 377.45 240.01 L 377.42 239.99 L 377.38 240 L 377.33 240.03 L 377.33 240.05 L 377.38 240.05 L 377.34 240.1 L 377.27 240.14 L 377.2 240.16 L 377.13 240.17 L 377.02 240.16 L 376.97 240.17 L 376.94 240.17 L 376.92 240.17 L 376.91 240.18 L 376.9 240.2 L 376.9 240.24 L 376.84 240.23 L 376.79 240.2 L 376.71 240.12 L 376.65 240.12 L 376.57 240.1 L 376.49 240.11 L 376.44 240.09 L 376.4 240.13 L 376.34 240.16 L 376.29 240.17 L 376.25 240.16 L 376.14 240.15 L 376.07 240.11 L 376.03 240.14 L 376.05 240.22 L 376.02 240.21 L 375.97 240.14 L 375.95 240.11 L 375.95 240.02 L 376.03 239.98 L 376.06 239.97 L 376.09 239.96 L 376.11 239.95 L 376.12 239.92 L 376.11 239.91 L 376.08 239.89 L 376.03 239.9 L 375.99 239.88 L 375.99 239.82 L 376.02 239.79 L 376.05 239.77 L 376.03 239.73 L 376.02 239.68 L 376.06 239.64 L 376.05 239.53 L 376.09 239.41 L 376.11 239.39 L 376.14 239.36 L 376.16 239.32 L 376.14 239.29 L 376.1 239.25 L 376.04 239.09 L 376.01 239.03 L 375.94 239.01 L 375.88 239 L 375.82 238.9 L 375.79 238.85 L 375.76 238.79 L 375.77 238.77 L 375.87 238.74 L 375.94 238.71 L 376.01 238.69 L 376.05 238.66 L 376.14 238.6 L 376.14 238.52 L 376.1 238.46 L 376.1 238.38 L 376.16 238.3 L 376.33 238.26 L 376.51 238.26 L 376.63 238.31 L 376.98 238.38 L 377.32 238.34 L 377.37 238.34 L 377.49 238.39 L 377.54 238.39 L 377.67 238.36 L 377.86 238.35 L 377.95 238.36 L 378.04 238.39 L 378.1 238.38 L 378.31 238.38 L 378.44 238.42 L 378.73 238.36 L 378.99 238.44 L 379.14 238.39 L 379.32 238.45 L 379.35 238.42 L 379.4 238.43 L 379.42 238.46 L 379.43 238.48 L 379.46 238.49 L 379.49 238.47 L 379.52 238.44 L 379.55 238.45 L 379.54 238.49 L 379.61 238.52 L 379.62 238.56 L 379.64 238.6 L 379.69 238.6 L 379.8 238.57 L 379.8 238.54 L 379.74 238.54 L 379.68 238.51 L 379.64 238.46 L 379.59 238.42 L 379.81 238.49 L 379.87 238.5 L 379.91 238.51 L 379.96 238.52 L 380.01 238.5 L 380.04 238.46 L 380.11 238.47 L 380.27 238.51 L 380.32 238.48 L 380.36 238.49 L 380.4 238.52 L 380.51 238.54 L 380.56 238.57 L 380.62 238.63 L 380.66 238.62 L 380.69 238.58 L 380.71 238.59 L 380.71 238.61 L 380.69 238.62 L 380.68 238.65 L 380.7 238.64 L 380.74 238.63 L 380.76 238.62 L 380.82 238.7 L 380.87 238.73 L 380.92 238.7 L 381.01 238.76 L 381.12 238.78 L 381.18 238.74 L 381.21 238.71 L 381.24 238.7 L 381.26 238.7 L 381.26 238.73 L 381.23 238.89 L 381.22 239.03 L 381.24 239.07 Z"
    fill="#D9B75E"
    stroke="#FFF7D6"
    stroke-width="2.2"
    stroke-linejoin="round"
    fill-rule="evenodd"
    clip-rule="evenodd"
    vector-effect="non-scaling-stroke"
  />
</svg>
